<svg width="88" height="88" viewBox="0 0 88 88" fill="none" xmlns="http://www.w3.org/2000/svg">
<circle cx="44" cy="44" r="44" fill="#303030"/>
<path d="M22.5 56.2344L25.8516 55.4375V30.8516L22.5 30.0547L22.9688 27.2891H35.7422L36.2109 30.0547L32.8828 30.8516V41.7969L33.2109 41.9375L45 30.5469L42.4453 30.0781L42.9141 27.2891H53.4141L53.8828 30.0547L50.5781 30.8984L41.2734 39.7578L51.6328 55.5547L54.375 56.2344L53.9062 59H45.8438L36.375 44.4219L32.8828 47.75V55.4375L36.2109 56.2344L35.7422 59H22.9688L22.5 56.2344ZM56.0156 56.6797C56.0156 56.0391 56.0859 55.4297 56.2266 54.8516C56.3828 54.2578 56.5859 53.7422 56.8359 53.3047C57.1016 52.8516 57.4062 52.5 57.75 52.25C58.0938 51.9844 58.4609 51.8516 58.8516 51.8516C59.5234 51.8516 60.1484 51.9297 60.7266 52.0859C61.3203 52.2266 61.8281 52.4297 62.25 52.6953C62.6875 52.9609 63.0312 53.2734 63.2812 53.6328C63.5312 53.9766 63.6562 54.3438 63.6562 54.7344C63.6562 55.375 63.5781 55.9844 63.4219 56.5625C63.2812 57.125 63.0781 57.6328 62.8125 58.0859C62.5625 58.5234 62.2578 58.8672 61.8984 59.1172C61.5547 59.3828 61.1875 59.5156 60.7969 59.5156C60.125 59.5156 59.5 59.4375 58.9219 59.2812C58.3438 59.1406 57.8359 58.9453 57.3984 58.6953C56.9766 58.4297 56.6406 58.125 56.3906 57.7812C56.1406 57.4375 56.0156 57.0703 56.0156 56.6797Z" fill="white"/>
</svg>
